<?xml version="1.0" encoding="utf-8"?>
<!-- Generator: Adobe Illustrator 26.1.0, SVG Export Plug-In . SVG Version: 6.00 Build 0)  -->
<svg version="1.1" id="レイヤー_1" xmlns="http://www.w3.org/2000/svg" xmlns:xlink="http://www.w3.org/1999/xlink" x="0px"
	 y="0px" viewBox="0 0 326.55 64.8" style="enable-background:new 0 0 326.55 64.8;" xml:space="preserve">
<g>
	<path d="M13.25,25.42c0,2.98,0.07,5.16,0.22,6.55c0.19,2.45,1.01,4.45,2.45,6.01c1.44,1.56,3.65,2.34,6.62,2.34
		c2.74,0,4.93-0.64,6.59-1.91c1.66-1.27,2.48-3.28,2.48-6.01h-6.05c-0.53,0-0.98-0.19-1.37-0.58c-0.38-0.38-0.58-0.84-0.58-1.37
		v-7.63c0-0.53,0.19-0.98,0.58-1.37c0.38-0.38,0.84-0.58,1.37-0.58h17.42c0.53,0,0.98,0.19,1.37,0.58c0.38,0.38,0.58,0.84,0.58,1.37
		v9.22c0,3.98-0.98,7.48-2.95,10.48c-1.97,3-4.64,5.3-8.03,6.91c-3.38,1.61-7.19,2.41-11.41,2.41c-4.46,0-8.35-0.88-11.66-2.63
		c-3.31-1.75-5.88-4.1-7.7-7.06c-1.82-2.95-2.83-6.23-3.02-9.83C0.05,30.02,0,28.13,0,26.64c0-1.78,0.05-4.15,0.14-7.13
		c0.14-3.6,1.13-6.88,2.95-9.83c1.82-2.95,4.4-5.3,7.74-7.06C14.17,0.88,18.07,0,22.54,0c4.27,0,8.05,0.79,11.34,2.38
		c3.29,1.58,5.86,3.58,7.7,5.98c1.85,2.4,2.84,4.73,2.99,6.98c0.05,0.43-0.1,0.8-0.43,1.12c-0.34,0.31-0.72,0.47-1.15,0.47h-9.58
		c-0.62,0-1.12-0.16-1.48-0.47c-0.36-0.31-0.83-0.8-1.4-1.48c-0.86-1.06-1.88-1.9-3.06-2.52c-1.18-0.62-2.82-0.94-4.93-0.94
		c-5.42,0-8.45,2.78-9.07,8.35C13.32,21.02,13.25,22.87,13.25,25.42z"/>
	<path d="M69.66,26.64c0-2.64-1.39-3.96-4.18-3.96c-1.58,0-2.88,0.43-3.89,1.3c-0.38,0.38-0.77,0.62-1.15,0.72
		c-0.38,0.1-0.86,0.14-1.44,0.14h-9.14c-0.48,0-0.88-0.14-1.19-0.43c-0.31-0.29-0.44-0.67-0.4-1.15c0.14-1.49,0.97-3.04,2.48-4.64
		c1.51-1.61,3.56-2.95,6.16-4.03c2.59-1.08,5.45-1.62,8.57-1.62c5.71,0,10,1.3,12.85,3.89c2.85,2.59,4.28,6.1,4.28,10.51v21.82
		c0,0.53-0.19,0.98-0.58,1.37c-0.38,0.38-0.84,0.58-1.37,0.58H71.6c-0.53,0-0.98-0.19-1.37-0.58c-0.38-0.38-0.58-0.84-0.58-1.37
		v-2.02c-1.25,1.54-2.74,2.7-4.46,3.49s-3.91,1.19-6.55,1.19c-4.03,0-7.19-1.06-9.47-3.17c-2.28-2.11-3.42-4.85-3.42-8.21
		c0-3.22,1.25-5.86,3.74-7.92c2.5-2.06,6.41-3.55,11.74-4.46L69.66,26.64z M63.03,36.22c-1.34,0.24-2.4,0.66-3.17,1.26
		c-0.77,0.6-1.15,1.33-1.15,2.2c0,1.63,1.15,2.45,3.46,2.45c2.11,0,3.89-0.67,5.33-2.02c1.44-1.34,2.16-2.98,2.16-4.9L63.03,36.22z"
		/>
	<path d="M108.07,14.9c0.82-0.82,1.75-1.22,2.81-1.22h10.58c0.48,0,0.89,0.17,1.22,0.5c0.34,0.34,0.5,0.74,0.5,1.22
		c0,0.24-0.05,0.46-0.14,0.65c-0.1,0.19-0.31,0.46-0.65,0.79L109.58,31.1l15.12,16.92c0.48,0.53,0.72,0.98,0.72,1.37
		c0,0.48-0.17,0.89-0.5,1.22c-0.34,0.34-0.74,0.5-1.22,0.5h-10.73c-1.25,0-2.23-0.41-2.95-1.22L98.57,37.01v12.17
		c0,0.53-0.19,0.98-0.58,1.37c-0.38,0.38-0.84,0.58-1.37,0.58h-9.07c-0.53,0-0.98-0.19-1.37-0.58c-0.38-0.38-0.58-0.84-0.58-1.37
		V1.94c0-0.53,0.19-0.98,0.58-1.37C86.57,0.19,87.02,0,87.55,0h9.07c0.53,0,0.98,0.19,1.37,0.58c0.38,0.38,0.58,0.84,0.58,1.37
		v23.33L108.07,14.9z"/>
	<path d="M125.81,14.26c0.38-0.38,0.84-0.58,1.37-0.58h9.07c0.53,0,0.98,0.19,1.37,0.58c0.38,0.38,0.58,0.84,0.58,1.37v18.22
		c0,2.16,0.48,3.84,1.44,5.04c0.96,1.2,2.45,1.8,4.46,1.8c3.89,0,5.83-2.28,5.83-6.84V15.62c0-0.53,0.19-0.98,0.58-1.37
		c0.38-0.38,0.84-0.58,1.37-0.58h9.07c0.53,0,0.98,0.19,1.37,0.58c0.38,0.38,0.58,0.84,0.58,1.37v33.55c0,0.53-0.19,0.98-0.58,1.37
		c-0.38,0.38-0.84,0.58-1.37,0.58h-8.35c-0.53,0-0.98-0.19-1.37-0.58c-0.38-0.38-0.58-0.84-0.58-1.37v-1.66
		c-1.01,1.25-2.29,2.28-3.85,3.1c-1.56,0.82-3.66,1.22-6.3,1.22c-4.8,0-8.54-1.37-11.23-4.1c-2.69-2.74-4.03-6.84-4.03-12.31v-19.8
		C125.24,15.1,125.43,14.64,125.81,14.26z"/>
	<path d="M190.49,25.42c0,2.98,0.07,5.16,0.22,6.55c0.19,2.45,1.01,4.45,2.45,6.01c1.44,1.56,3.65,2.34,6.62,2.34
		c2.74,0,4.93-0.64,6.59-1.91c1.66-1.27,2.48-3.28,2.48-6.01h-6.05c-0.53,0-0.98-0.19-1.37-0.58c-0.38-0.38-0.58-0.84-0.58-1.37
		v-7.63c0-0.53,0.19-0.98,0.58-1.37c0.38-0.38,0.84-0.58,1.37-0.58h17.42c0.53,0,0.98,0.19,1.37,0.58c0.38,0.38,0.58,0.84,0.58,1.37
		v9.22c0,3.98-0.98,7.48-2.95,10.48c-1.97,3-4.64,5.3-8.03,6.91c-3.38,1.61-7.19,2.41-11.41,2.41c-4.46,0-8.35-0.88-11.66-2.63
		c-3.31-1.75-5.88-4.1-7.7-7.06c-1.83-2.95-2.83-6.23-3.02-9.83c-0.1-2.3-0.14-4.2-0.14-5.69c0-1.78,0.05-4.15,0.14-7.13
		c0.14-3.6,1.13-6.88,2.95-9.83c1.82-2.95,4.4-5.3,7.74-7.06c3.34-1.75,7.24-2.63,11.7-2.63c4.27,0,8.05,0.79,11.34,2.38
		c3.29,1.58,5.86,3.58,7.7,5.98c1.85,2.4,2.84,4.73,2.99,6.98c0.05,0.43-0.1,0.8-0.43,1.12c-0.34,0.31-0.72,0.47-1.15,0.47h-9.58
		c-0.62,0-1.12-0.16-1.48-0.47c-0.36-0.31-0.83-0.8-1.4-1.48c-0.86-1.06-1.88-1.9-3.06-2.52c-1.18-0.62-2.82-0.94-4.93-0.94
		c-5.42,0-8.45,2.78-9.07,8.35C190.56,21.02,190.49,22.87,190.49,25.42z"/>
	<path d="M243.86,64.8h-9.43c-0.48,0-0.89-0.17-1.22-0.5c-0.34-0.34-0.5-0.74-0.5-1.22c0-0.19,0.02-0.36,0.07-0.5l5.47-12.89
		L223.7,15.91c-0.05-0.14-0.07-0.31-0.07-0.5c0-0.48,0.17-0.89,0.5-1.22c0.33-0.34,0.74-0.5,1.22-0.5h9.43
		c0.96,0,1.66,0.58,2.09,1.73l7.99,18.72l7.92-18.72c0.43-1.15,1.13-1.73,2.09-1.73h9.5c0.48,0,0.89,0.17,1.22,0.5
		c0.34,0.34,0.5,0.74,0.5,1.22c0,0.19-0.02,0.36-0.07,0.5l-20.09,47.16C245.52,64.22,244.82,64.8,243.86,64.8z"/>
	<path d="M325.97,50.54c-0.38,0.38-0.84,0.58-1.37,0.58h-8.71c-0.53,0-0.98-0.19-1.37-0.58c-0.38-0.38-0.58-0.84-0.58-1.37V30.74
		c0-2.3-0.43-3.98-1.3-5.04c-0.86-1.06-2.19-1.58-3.96-1.58c-1.73,0-3.02,0.53-3.89,1.58c-0.86,1.06-1.3,2.74-1.3,5.04v18.43
		c0,0.53-0.19,0.98-0.58,1.37c-0.38,0.38-0.84,0.58-1.37,0.58h-8.71c-0.53,0-0.98-0.19-1.37-0.58c-0.38-0.38-0.58-0.84-0.58-1.37
		V30.74c0-2.3-0.43-3.98-1.3-5.04c-0.86-1.06-2.18-1.58-3.96-1.58c-3.46,0-5.18,2.14-5.18,6.41v18.65c0,0.53-0.19,0.98-0.58,1.37
		c-0.38,0.38-0.84,0.58-1.37,0.58h-9.07c-0.53,0-0.98-0.19-1.37-0.58c-0.38-0.38-0.58-0.84-0.58-1.37V15.62
		c0-0.53,0.19-0.98,0.58-1.37c0.38-0.38,0.84-0.58,1.37-0.58h8.71c0.53,0,0.98,0.19,1.37,0.58c0.38,0.38,0.58,0.84,0.58,1.37v1.66
		c2.25-2.88,5.3-4.32,9.14-4.32c2.5,0,4.73,0.47,6.7,1.4c1.97,0.94,3.58,2.34,4.82,4.21c1.39-1.82,3.08-3.22,5.08-4.18
		c1.99-0.96,4.14-1.44,6.44-1.44c4.37,0,7.84,1.37,10.4,4.1c2.57,2.74,3.85,6.84,3.85,12.31v19.8
		C326.55,49.71,326.36,50.16,325.97,50.54z"/>
</g>
</svg>
